<svg xmlns="http://www.w3.org/2000/svg" width="512" height="512" viewBox="0 0 400 400">
  <path fill="#047bdb" d="M0 0h400v400H0z"/>
  <path d="M203.47806 115.53077c-23.1551 4.96941-35.98137 32.25142-25.22086 53.64396 14.48351 28.79227 56.16685 27.54934 68.61468-2.04609 12.01964-28.58164-12.85057-58.15393-43.39382-51.59787m15.1883 11.06371c16.32824 4.15815 24.84243 22.76741 17.21935 37.63167-10.13209 19.75382-37.74624 19.67049-47.57859-.1435-10.00826-20.16813 8.5223-43.04895 30.35924-37.48817m-123.878845 9.712c-34.347276 4.16394-57.464184 30.4958-60.166461 68.53599-2.924477 41.17761 20.585911 74.03776 56.956131 79.60897 21.061555 3.22653 37.953385-1.87829 49.416365-14.93602 3.05062-3.47419 2.78329-3.72995 4.26693 4.07251.55435 2.91407 1.21053 6.08389 1.45819 7.04328l.44903 1.7452 9.81731-.12499 9.81615-.12498v-77.30711l-28.9323-.12731c-15.91277-.0706-29.40448-.0139-29.98197.12615l-1.04966.2546.12383 11.67708.12383 11.67823 15.62344.12152 15.62345.12267v1.32279c0 2.54141-2.27293 10.25361-4.00423 13.58776-10.1402 19.53509-42.684405 21.11711-57.784749 2.80991-11.874974-14.39671-14.087716-45.34733-4.586348-64.13481 13.857412-27.39773 53.039847-26.74271 61.988027 1.03577 1.10522 3.43022.088 3.22538 16.09099 3.23348 16.44512.008 15.16516.4606 14.26015-5.04348-4.91502-29.90674-34.87036-49.37587-69.508105-45.17721m108.633835 3.27976c-1.32162 3.44295-.1111 26.57953 1.39107 26.57953.78001 0 20.1959-11.13315 21.58928-12.38071 1.87482-1.67692 1.17002-2.27639-10.95608-9.31273-9.55461-5.54458-11.4734-6.32344-12.02427-4.88609m61.86421 71.13528l.11688 71.40492H296.41787l.23146-29.39522.23146-29.39522 29.7424-.1192 29.74241-.1192v-24.52071l-29.74241-.1192-29.7424-.1192v-32.40418l34.37157-.1192 34.37158-.11804V139.3166H265.16751l.11805 71.40492m-65.73535 34.02438l.11805 37.38054 15.245.12267c11.88771.0949 15.32718-.007 15.6165-.46292.42704-.67354.52889-72.58188.10416-73.68826-.24766-.64808-2.0704-.73256-15.74149-.73256h-15.46142l.1192 37.38053" fill="#f8fafb" fill-rule="evenodd"/>
</svg>